<svg width="65" height="64" viewBox="0 0 65 64" fill="none" xmlns="http://www.w3.org/2000/svg">
<g clip-path="url(#clip0_37_29)">
<path d="M5.19375 11.5206C2.603 11.5206 0.5 15.6993 0.5 19.3199C0.5 22.0596 1.707 24.3989 3.42088 25.3779C3.79825 25.5903 4.01063 26.0108 3.999 26.4468L3.44425 49.9671C3.42088 50.8993 4.101 51.7439 5.02875 51.8309C6.09025 51.929 6.9745 51.0838 6.95062 50.0418L6.39288 26.4466C6.38112 26.0106 6.59312 25.5901 6.97062 25.3778C8.68487 24.3988 9.8915 22.0595 9.8915 19.3198C9.89163 15.6993 7.7885 11.5206 5.19375 11.5206ZM4.11675 15.7545C3.91263 16.065 3.76325 16.3913 3.6645 16.7256C3.59375 16.9533 3.3105 17.044 3.13037 16.8869C2.67037 16.4933 2.46188 15.8254 2.71725 14.9561C3.0635 13.7574 4.15562 13.022 4.85588 13.2228C5.18988 13.321 5.48088 13.6431 5.66162 14.088C5.7285 14.2486 5.64988 14.4376 5.48875 14.5084C5.00537 14.7203 4.53762 15.1251 4.11675 15.7545Z" fill="black"/>
<path d="M33.0296 11.316C21.6239 11.316 12.3452 20.5947 12.3452 31.9995C12.3452 43.4052 21.624 52.684 33.0296 52.684C44.4349 52.684 53.7131 43.4052 53.7131 31.9995C53.7131 20.5947 44.4349 11.316 33.0296 11.316ZM33.0296 49.5341C23.3607 49.5341 15.495 41.6684 15.495 31.9995C15.495 22.3316 23.3607 14.4659 33.0296 14.4659C42.6976 14.4659 50.5632 22.3316 50.5632 31.9995C50.5632 41.6684 42.6976 49.5341 33.0296 49.5341Z" fill="black"/>
<path d="M33.0296 21.6582C27.3265 21.6582 22.6874 26.2975 22.6874 31.9995C22.6874 37.7026 27.3265 42.3417 33.0296 42.3417C38.7323 42.3417 43.3714 37.7026 43.3714 31.9995C43.3714 26.2973 38.7323 21.6582 33.0296 21.6582ZM33.0296 41.082C28.0219 41.082 23.9476 37.0077 23.9476 31.9995C23.9476 26.9922 28.0219 22.918 33.0296 22.918C38.0374 22.918 42.1116 26.9922 42.1116 31.9995C42.1116 37.0077 38.0374 41.082 33.0296 41.082Z" fill="black"/>
<path d="M31.2425 24.979C28.5038 25.2842 26.2953 27.5571 26.0604 30.3022C25.8993 32.1777 26.6293 33.9 27.8729 35.0791C28.1019 30.6944 31.7425 27.1997 36.1761 27.1997C36.2504 27.1997 36.3241 27.2026 36.3984 27.2051C36.4456 27.2114 36.4926 27.207 36.54 27.2217C36.5366 27.2169 36.5323 27.213 36.5288 27.2085C36.5375 27.209 36.5469 27.209 36.5561 27.209C35.3534 25.6641 33.3958 24.7392 31.2425 24.979Z" fill="black"/>
<path d="M64.2971 11.5206H62.7404L62.7219 11.5201V11.5206H62.7014L62.8103 20.4712C62.8126 20.6963 62.635 20.881 62.4181 20.881C62.1979 20.881 62.0196 20.6963 62.0178 20.4712L61.9405 11.5206H60.4684L60.484 20.4712C60.4845 20.6963 60.3087 20.881 60.0919 20.881C59.8711 20.881 59.6954 20.6963 59.6954 20.4712L59.7115 11.5206H58.2394L58.1621 20.4712C58.1603 20.6963 57.9824 20.881 57.7618 20.881C57.545 20.881 57.3706 20.6963 57.3736 20.4712L57.48 11.648L57.4815 11.5406V11.5206H55.8833L55.6801 21.8975C55.6563 23.1357 56.9824 24.0448 58.1864 24.6142C58.6288 24.8232 58.9046 25.273 58.8935 25.7621L58.3402 49.9842C58.3172 51.0013 59.1072 51.8387 60.0897 51.8387C61.0721 51.8387 61.8621 51.0013 61.8387 49.9842L61.285 25.7196C61.2743 25.2367 61.5423 24.7913 61.9764 24.5795C63.1839 23.9892 64.5222 23.0697 64.4992 21.8973L64.2971 11.5206Z" fill="black"/>
</g>
<defs>
<clipPath id="clip0_37_29">
<rect width="64" height="64" fill="white" transform="translate(0.5)"/>
</clipPath>
</defs>
</svg>
