<svg width="65" height="64" viewBox="0 0 65 64" fill="none" xmlns="http://www.w3.org/2000/svg">
<g clip-path="url(#clip0_37_45)">
<path d="M0.5 31.4241V32.5748C0.5 33.9016 1.57525 34.9772 2.90188 34.9772V29.0602V29.0421V29.0221C1.57525 29.0222 0.5 30.0973 0.5 31.4241Z" fill="black"/>
<path d="M56.3804 22.0505H56.1084L55.8828 22.0339V22.0325C55.8828 19.6657 53.9648 17.7477 51.598 17.7477H48.2638C45.8975 17.7477 43.979 19.6657 43.979 22.0325V41.967C43.979 44.3337 45.8975 46.2522 48.2643 46.2522H51.5986C53.9649 46.2522 55.8829 44.3337 55.8829 41.9675V41.9495H56.381C58.7473 41.9495 60.6651 40.031 60.6651 37.6647V26.3351C60.665 23.9685 58.7471 22.0505 56.3804 22.0505ZM57.2549 37.6642C57.2549 38.1471 56.8633 38.5392 56.3799 38.5392H53.3471C52.8643 38.5392 52.4726 38.9304 52.4726 39.4137V41.9675C52.4726 42.4504 52.0814 42.842 51.5985 42.842H48.2638C47.7809 42.842 47.3893 42.4504 47.3893 41.9675V22.0325C47.3893 21.5496 47.7809 21.158 48.2638 21.158H51.5986C52.0815 21.158 52.4728 21.5491 52.4728 22.032V24.5862C52.4728 25.0691 52.8644 25.4607 53.3473 25.4607H56.381C56.8639 25.4607 57.255 25.8519 57.255 26.3347V37.6642H57.2549Z" fill="black"/>
<path d="M55.2505 27.72C53.4805 29.1198 51.5205 30.3601 49.3906 31.4098V40.8401H50.4707V39.4098C50.4707 37.8297 51.7607 36.5402 53.3506 36.5402H55.2505V31.1287L55.2632 27.7356C55.2594 27.739 55.255 27.7418 55.2505 27.7453V27.72Z" fill="black"/>
<path d="M16.7363 17.7477H13.4014C11.0351 17.7477 9.11663 19.6657 9.11663 22.032V22.0505H8.61901C6.25276 22.0505 4.33438 23.9685 4.33438 26.3347V37.6644C4.33438 40.0311 6.25276 41.9491 8.61901 41.9491H8.89151L9.11663 41.9657V41.9671C9.11663 44.3334 11.0351 46.2519 13.4014 46.2519H16.7358C19.1025 46.2519 21.0205 44.3334 21.0205 41.9671V22.0325C21.0205 19.6697 19.0986 17.7477 16.7363 17.7477ZM17.6104 41.967C17.6104 42.4499 17.2188 42.8416 16.7358 42.8416H13.4014C12.9185 42.8416 12.5269 42.4499 12.5269 41.9675V39.4137C12.5269 38.9304 12.1353 38.5387 11.6523 38.5387H8.61913C8.13626 38.5387 7.74463 38.1476 7.74463 37.6647V26.3351C7.74463 25.8517 8.13626 25.4606 8.61913 25.4606H11.6524C12.1354 25.4606 12.527 25.069 12.527 24.5861V22.0324C12.527 21.5495 12.9186 21.1579 13.4015 21.1579H16.7364C17.2193 21.1579 17.6105 21.5495 17.6105 22.0324V41.967H17.6104Z" fill="black"/>
<path d="M9.76075 27.7103V27.7254C9.7545 27.7201 9.74713 27.7156 9.74075 27.7103V36.5404H11.6505C13.2408 36.5404 14.5309 37.8299 14.5309 39.41V40.8403H15.6105V31.41C13.8308 30.5326 12.1705 29.5155 10.6373 28.3841C10.3423 28.1619 10.0435 27.9421 9.76075 27.7103Z" fill="black"/>
<path d="M62.2461 29.0373C62.2031 29.0343 62.1621 29.0231 62.1183 29.0221V29.0241C62.1114 29.0241 62.105 29.0221 62.0981 29.0221V34.9772C63.4244 34.9772 64.5 33.9015 64.5 32.5748V31.4241C64.5 30.1482 63.5024 29.115 62.2461 29.0373Z" fill="black"/>
<path d="M22.98 34.9772H42.02V29.0602V29.0422V29.0222H22.98V34.9772Z" fill="black"/>
</g>
<defs>
<clipPath id="clip0_37_45">
<rect width="64" height="64" fill="white" transform="translate(0.5)"/>
</clipPath>
</defs>
</svg>
