<svg width="64" height="64" viewBox="0 0 64 64" fill="none" xmlns="http://www.w3.org/2000/svg">
<g clip-path="url(#clip0_37_54)">
<path fill-rule="evenodd" clip-rule="evenodd" d="M47.5185 50.8941L47.3018 50.8252C46.8291 50.687 46.4155 50.5591 46.0909 50.4312C45.8936 50.215 45.1749 49.358 43.4024 46.4336C42.8414 45.5376 41.9156 44.9664 40.9111 44.8579L40.7539 41.7759C40.9399 41.6744 42.4658 40.7056 42.894 40.4331C42.9575 40.396 42.9951 40.376 43.0128 40.3692C43.0166 40.4249 43.0825 41.397 42.2905 43.0425C42.2841 43.0552 42.2803 43.066 42.2739 43.0786C42.2664 43.0938 42.2573 43.1101 42.2483 43.1264C42.2401 43.1411 42.232 43.1558 42.2251 43.1695C42.1173 43.3793 42.0005 43.5957 41.8624 43.8252L41.8746 43.8244C41.8724 43.828 41.8707 43.8314 41.869 43.8348C41.8685 43.8358 41.868 43.8369 41.8674 43.8379C41.8662 43.8403 41.8649 43.8427 41.8634 43.8452C41.8634 43.8452 43.7071 43.755 47.175 39.964C47.2571 39.8745 47.33 39.7766 47.4028 39.6786C47.4544 39.6093 47.5059 39.5401 47.5608 39.4737C47.7234 39.278 47.8815 39.0791 48.032 38.875C48.2693 38.5532 48.492 38.2197 48.7024 37.876C48.8425 37.647 48.9801 37.417 49.1081 37.1812C49.2521 36.9151 49.3928 36.6465 49.5231 36.3692C49.6819 36.0324 49.8284 35.6895 49.965 35.3429C50.089 35.0294 50.2048 34.7116 50.3136 34.3874C50.3305 34.337 50.3459 34.286 50.3612 34.235L50.3613 34.2348C50.3735 34.1944 50.3857 34.154 50.3986 34.1139C51.3615 31.1081 51.7209 27.6969 51.6248 24.2291C51.4338 17.3482 50.2165 12.3444 46.1399 7.05673C41.7383 1.3551 34.4516 -1.3329 28.79 0.646102C17.7813 0.272102 13.6065 12.7379 12.8975 19.5616C12.4639 20.0739 12.1196 20.773 11.9126 21.6002C11.2725 24.1999 11.7554 28.2271 13.6851 30.4717C14.0889 30.9445 14.5319 31.3385 15.0044 31.6832C15.3789 32.4512 15.7626 33.1207 16.1074 33.7115C16.4326 34.273 16.7178 34.7652 16.915 35.2081C18.0968 37.9064 17.7813 40.6631 17.5449 42.6817L17.4878 43.1954L17.4614 43.3716L17.4688 43.3697L17.4663 43.3907L18.1558 43.2237C19.1309 42.982 20.6655 42.0294 21.7393 41.3004L21.8365 41.2368C21.9566 41.1582 22.0664 41.0864 22.1605 41.025C22.101 41.5265 21.973 42.2487 21.6903 43.194L21.5365 43.7096L21.4608 43.9329L21.47 43.9309L21.4638 43.9524L22.242 43.8245C22.2467 43.8229 22.261 43.8196 22.2836 43.8144C22.3875 43.7906 22.6677 43.7263 23.012 43.6007L23.0364 43.5933C23.076 43.5814 23.1149 43.5697 23.157 43.5559L23.0888 44.8581C22.0844 44.9665 21.1585 45.5379 20.5975 46.4436C18.825 49.3484 18.1063 50.2151 17.909 50.4314C17.5843 50.5592 17.1708 50.6871 16.7078 50.8254L16.4616 50.904L16.4549 50.906C13.6083 51.7828 8.83768 53.2522 5.25613 58.8801C4.47826 60.1008 3.83813 61.322 3.34588 62.5036C3.20763 62.8381 3.24726 63.2224 3.44413 63.5275C3.64138 63.823 3.98613 64.0002 4.34051 64.0002H59.6588C60.0133 64.0002 60.358 63.823 60.5553 63.5275C60.752 63.2224 60.7915 62.8381 60.6534 62.5036C60.1613 61.322 59.5211 60.1008 58.7433 58.8801C55.1672 53.2595 50.404 51.7865 47.5367 50.8997L47.5185 50.8941ZM16.7331 29.7333C16.7271 29.7292 16.7211 29.7252 16.715 29.7212C16.4958 29.5777 16.274 29.4112 16.0588 29.2145C16.0246 29.1833 15.9915 29.1507 15.9587 29.1182L15.9445 29.1042C15.8391 29.0016 15.7346 28.8966 15.635 28.7785C14.3649 27.3012 14 24.3375 14.3844 22.4566C14.5811 21.5216 14.8668 21.2061 14.9454 21.1769C15.0148 21.1374 15.1031 21.1276 15.1818 21.1276C15.753 21.1276 16.314 21.8269 16.5704 22.1911C16.5275 23.009 16.4869 25.1305 16.9361 28.3981C17.0021 28.904 17.0774 29.4319 17.1676 29.9919C17.0625 29.9356 16.9541 29.8726 16.8453 29.8057C16.8071 29.7823 16.77 29.7577 16.7331 29.7333ZM37.9083 10.6114C38.4869 10.8066 38.9254 10.8262 39.0655 10.8271C39.0722 10.8281 39.0813 10.8292 39.0899 10.8301L39.0899 10.8301C39.0977 10.831 39.105 10.8318 39.1094 10.8325L39.1085 10.8276H39.129L39.0801 10.6309L39.0406 10.4634L38.9723 10.1952L38.8024 9.2431L38.8044 9.2421C38.8731 9.22248 39.0109 9.19335 39.1784 9.16348C39.4551 9.13173 39.8293 9.13173 40.236 9.2431C40.2597 9.25075 40.2836 9.25794 40.3076 9.26514C40.3799 9.28689 40.4523 9.30863 40.5173 9.34273L40.5163 9.33398C40.518 9.33467 40.5197 9.33525 40.5214 9.33578C40.5235 9.3364 40.5255 9.33695 40.5275 9.33751C40.5307 9.33842 40.534 9.33937 40.5373 9.34073C40.5326 9.29387 40.528 9.24934 40.5233 9.20491C40.5182 9.15582 40.5131 9.10688 40.508 9.0551C40.4978 8.95708 40.4783 8.8588 40.4589 8.7604L40.4588 8.75973C40.3914 8.36323 40.2879 8.00723 40.1681 7.67673C40.1572 7.64182 40.1466 7.60651 40.136 7.57124C40.1158 7.50384 40.0955 7.43657 40.0734 7.37248C40.5168 7.62285 42.0309 8.5976 42.6149 10.7684C42.6641 10.9261 42.7038 11.0936 42.7331 11.2606C42.7603 11.4178 42.781 11.5782 42.8017 11.7391L42.8017 11.7392L42.8054 11.7675C42.8073 11.7941 42.8107 11.8194 42.8142 11.8448C42.8188 11.878 42.8234 11.9115 42.8245 11.9486C42.6221 11.8937 42.4288 11.8554 42.2439 11.8188L42.2113 11.8124C42.034 11.7826 41.8568 11.7532 41.6995 11.7332C41.2854 11.6805 40.9959 11.6679 40.9363 11.6654L40.9329 11.6649L40.9223 11.6647L40.9114 11.6644L41.0593 12.1766L41.325 13.122V13.1317H41.3353V13.1415L41.3534 13.2094L41.3495 13.4379C41.246 13.4384 41.0209 13.4296 40.7148 13.3582C39.9271 13.2005 38.6274 12.6889 37.7015 11.1034C37.6631 11.0356 37.624 10.9577 37.5851 10.8801L37.5834 10.8767C37.495 10.719 37.4261 10.5515 37.3666 10.3749C37.5538 10.4732 37.7408 10.5517 37.9083 10.6114ZM22.2715 36.0942C19.9873 33.042 19.5439 29.5366 19.4063 26.4936L19.396 26.2379L19.3924 26.1483C19.2857 23.5033 19.1844 20.9928 20.4698 16.0171C20.9815 13.9884 22.0255 12.4424 23.3545 11.2905C23.4136 12.7377 23.7188 15.0029 24.9595 16.9032C25.0763 16.954 25.073 16.835 25.0571 16.277C25.0452 15.8576 25.0262 15.1904 25.0459 14.161C25.0551 13.9164 25.0674 13.6547 25.084 13.3666C26.2358 16.8612 27.1631 18.7196 30.0664 20.1464C30.6631 20.4446 31.3364 20.7269 32.1211 20.9999C32.1186 20.9963 32.1167 20.9928 32.1147 20.9893L32.1147 20.9893C32.114 20.988 32.1133 20.9868 32.1126 20.9856C32.1113 20.9834 32.11 20.9811 32.1084 20.9789C32.113 20.9804 32.1174 20.982 32.1217 20.9837C32.1269 20.9857 32.132 20.9877 32.1376 20.9896C30.4384 18.2977 29.8418 16.1474 29.7435 13.4091C29.7294 12.8666 29.7304 12.3104 29.7523 11.724C30.0545 14.6072 31.909 18.3192 34.3344 20.1697C34.3528 20.1841 34.371 20.1992 34.3891 20.2142L34.3891 20.2143C34.4138 20.2347 34.4384 20.2552 34.4636 20.2737C34.5168 20.3125 34.5712 20.3467 34.6255 20.381C34.6574 20.4011 34.6893 20.4212 34.721 20.4422C35.4905 20.9574 36.3108 21.2894 37.1604 21.3314L37.1565 21.3211C37.16 21.3213 37.1634 21.3219 37.1668 21.3225L37.1668 21.3225C37.1709 21.3233 37.175 21.324 37.179 21.324C37.1149 21.1555 37.0496 20.9867 36.9838 20.8167C36.3916 19.2864 35.7612 17.6572 35.6298 15.2892C35.6068 14.781 35.6005 14.2477 35.6311 13.6619C36.7902 16.55 39.2817 19.5637 41.4345 22.1676C42.1359 23.016 42.8012 23.8208 43.3729 24.5636C43.9339 25.2921 44.1805 26.2082 44.0916 27.1237C43.865 29.4376 43.2644 33.9772 41.8171 35.8971C41.8171 35.8971 41.7874 35.9562 41.7479 36.0549C41.7442 36.0623 41.7419 36.0683 41.7399 36.0735C41.7367 36.0818 41.7344 36.0879 41.7284 36.094C39.9856 38.3884 38.8138 39.4221 37.9471 40.072C37.797 40.1883 37.656 40.2905 37.5212 40.3882L37.5211 40.3883C37.4618 40.4312 37.4037 40.4733 37.3466 40.5154C37.0809 40.7024 36.7655 40.9089 36.4214 41.1159C35.7021 41.5491 34.7768 41.9724 33.5263 42.1696C33.0731 42.2482 32.5615 42.2877 32 42.2877C31.4389 42.2877 30.9268 42.2482 30.4736 42.1696C29.2134 41.9724 28.2979 41.549 27.5786 41.1159C27.2344 40.9089 26.9189 40.7024 26.6534 40.5154C26.595 40.4724 26.5357 40.4293 26.475 40.3854L26.4748 40.3852C26.3412 40.2884 26.2015 40.1871 26.0528 40.072C25.186 39.4224 24.0143 38.3887 22.2715 36.0942ZM41.4039 50.1552C40.8521 51.3862 38.5089 55.4135 32.0001 55.4135C25.4914 55.4135 23.148 51.3862 22.5964 50.1552C22.508 49.9682 22.5866 49.7421 22.7736 49.6435C23.404 49.3182 24.8024 48.5995 25.5114 48.3339L25.5211 48.186L25.5704 47.1327L25.6191 46.0889L25.7964 42.4654C26.9683 43.2725 28.8589 44.3852 32 44.3852C34.7218 44.3852 36.5024 43.5502 37.6924 42.8017C37.6942 42.8005 37.6961 42.7993 37.698 42.7982L37.7031 42.795C37.7242 42.7821 37.7439 42.7694 37.7643 42.7562L37.7685 42.7535C37.9194 42.6607 38.0659 42.5679 38.2041 42.4766L38.3809 46.0889L38.4298 47.1327L38.479 48.186L38.4893 48.3339C39.1983 48.5995 40.5963 49.3182 41.2265 49.6435C41.4135 49.7422 41.4923 49.9682 41.4039 50.1552ZM18.8703 53.5C12.4129 54.1095 8.42444 59.0873 7 61.5H16.9711C19.7408 58.3889 18.8703 53.5 18.8703 53.5ZM57 61.5C55.625 59.0873 52.3585 54.1095 46.1252 53.5C46.1252 53.5 45.2849 58.3889 47.9585 61.5H57Z" fill="black"/>
</g>
<defs>
<clipPath id="clip0_37_54">
<rect width="64" height="64" fill="white"/>
</clipPath>
</defs>
</svg>
